<svg xmlns="http://www.w3.org/2000/svg" width="64" height="64" viewBox="0 0 64 64" fill="none">
  <rect x="8" y="12" width="48" height="44" rx="10" fill="#153A5B"/>
  <path d="M14 18C14 15.7909 15.7909 14 18 14H46C48.2091 14 50 15.7909 50 18V22H14V18Z" fill="#F4B942"/>
  <path d="M12 22H52L49 31C48.4477 32.6569 46.8975 33.775 45.151 33.775C43.9274 33.775 42.7778 33.1907 42 32.2C41.2222 33.1907 40.0726 33.775 38.849 33.775C37.6254 33.775 36.4758 33.1907 35.698 32.2C34.9202 33.1907 33.7706 33.775 32.547 33.775C31.3234 33.775 30.1738 33.1907 29.396 32.2C28.6182 33.1907 27.4686 33.775 26.245 33.775C25.0214 33.775 23.8718 33.1907 23.094 32.2C22.3162 33.1907 21.1666 33.775 19.943 33.775C18.1965 33.775 16.6463 32.6569 16.094 31L12 22Z" fill="#FFF3D6"/>
  <rect x="18" y="34" width="28" height="16" rx="4" fill="#D9ECFF"/>
  <rect x="22" y="38" width="8" height="12" rx="2" fill="#F4B942"/>
  <rect x="34" y="38" width="8" height="8" rx="2" fill="#F4B942"/>
  <path d="M28 26H36" stroke="#153A5B" stroke-width="3" stroke-linecap="round"/>
  <path d="M32 22V30" stroke="#153A5B" stroke-width="3" stroke-linecap="round"/>
</svg>