<?xml version="1.0" encoding="UTF-8"?>
<svg id="Layer_2" data-name="Layer 2" xmlns="http://www.w3.org/2000/svg" xmlns:xlink="http://www.w3.org/1999/xlink" viewBox="0 0 1490 667">
  <defs>
    <style>
      .cls-1 {
        clip-path: url(#clippath);
      }

      .cls-2 {
        fill: none;
      }

      .cls-2, .cls-3, .cls-4 {
        stroke-width: 0px;
      }

      .cls-3 {
        fill: url(#linear-gradient);
      }

      .cls-4 {
        fill: url(#linear-gradient-2);
      }
    </style>
    <clipPath id="clippath">
      <rect class="cls-2" x="0" width="1490" height="667"/>
    </clipPath>
    <linearGradient id="linear-gradient" x1="97.49" y1="568.85" x2="568.2" y2="98.15" gradientUnits="userSpaceOnUse">
      <stop offset="0" stop-color="#a87b30"/>
      <stop offset=".13" stop-color="#dfa44d"/>
      <stop offset=".36" stop-color="#eeda7f"/>
      <stop offset=".59" stop-color="#e9bc68"/>
      <stop offset=".93" stop-color="#a57b2d"/>
      <stop offset=".98" stop-color="#936632"/>
      <stop offset="1" stop-color="#8b5a25"/>
    </linearGradient>
    <linearGradient id="linear-gradient-2" x1="791.57" y1="551.45" x2="1376.94" y2="213.49" gradientUnits="userSpaceOnUse">
      <stop offset="0" stop-color="#c29746"/>
      <stop offset=".52" stop-color="#eeda7f"/>
      <stop offset="1" stop-color="#c29746"/>
    </linearGradient>
  </defs>
  <g id="Layer_1-2" data-name="Layer 1">
    <g class="cls-1">
      <g>
        <path class="cls-3" d="m332.84,12.55c177.26,0,320.95,143.69,320.95,320.95s-143.7,320.95-320.95,320.95S11.89,510.76,11.89,333.5,155.58,12.55,332.84,12.55m0-11.89c-44.93,0-88.52,8.8-129.56,26.16-19.72,8.34-38.75,18.67-56.54,30.69-17.62,11.9-34.19,25.58-49.25,40.64-15.06,15.06-28.73,31.63-40.64,49.25-12.02,17.79-22.35,36.82-30.69,56.54C8.81,244.98,0,288.57,0,333.5s8.8,88.52,26.16,129.56c8.34,19.72,18.67,38.75,30.69,56.54,11.9,17.62,25.58,34.19,40.64,49.25,15.06,15.06,31.63,28.73,49.25,40.64,17.79,12.02,36.82,22.35,56.54,30.69,41.04,17.36,84.63,26.16,129.56,26.16s88.52-8.8,129.56-26.16c19.72-8.34,38.75-18.67,56.54-30.69,17.62-11.91,34.19-25.58,49.25-40.64,15.06-15.06,28.73-31.63,40.64-49.25,12.02-17.79,22.35-36.82,30.69-56.54,17.36-41.04,26.16-84.63,26.16-129.56s-8.8-88.52-26.16-129.56c-8.34-19.72-18.67-38.75-30.69-56.54-11.91-17.62-25.58-34.19-40.64-49.25-15.06-15.06-31.63-28.73-49.25-40.64-17.79-12.02-36.82-22.35-56.54-30.69C421.36,9.46,377.77.66,332.84.66h0Zm238.81,266.48l-10.68,27.13h-31.43l10.68-27.13h31.43Zm-341.16-71.07h30.03v250.37h-30.03v-22.73c-18.62,18.93-40.17,28.52-64.13,28.52-25.43,0-47.4-9.4-65.29-27.95-17.88-18.52-26.94-41.06-26.94-67s9.18-48.44,27.27-66.87c18.1-18.43,40.5-27.78,66.56-27.78,24.42,0,45.43,9.39,62.52,27.91v-94.48Zm-16.67,115.12c-11.89-12.5-27.1-18.84-45.2-18.84s-33.42,6.55-45.52,19.48c-12.13,12.96-18.28,28.42-18.28,45.93s6.31,33.02,18.75,46.08c12.42,13.04,27.52,19.65,44.89,19.65,16.33,0,31.14-6.2,43.99-18.43,12.83-12.21,19.33-27.9,19.33-46.66s-6.04-34.67-17.96-47.21h0Zm350.41,112.13c-6.11,1.7-12.62,2.6-18.82,2.6-14.94,0-23.04-4.95-23.04-31.04v-198.8h-30.33v71.08h-20.14l-10.69,27.13h30.83v99.59c0,27.17,5.46,58.36,48.03,58.36,10.09,0,18.37-1.13,25.31-3.43l1.36-.46v-25.72l-2.52.7Zm-187.42-46.32c-1.76,4.38-4.26,11.17-7.44,20.2-1.52,4.31-2.92,8.37-3.98,11.43-2.76-7.97-7.98-22.74-11.8-31.63l-43.46-109.86h-31.88l70.09,178.04.49,1.26h31.96l70.58-179.3h-31.5l-43.06,109.85Z"/>
        <path class="cls-4" d="m759.34,301.39h-8.23c-.41-1.92-1.35-3.5-2.83-4.73-1.47-1.23-3.17-1.85-5.09-1.85-2.4,0-4.3.63-5.71,1.9-1.41,1.27-2.11,2.83-2.11,4.68,0,1.71.7,3.24,2.11,4.58,1.4,1.34,4.16,2.66,8.28,3.96,9.53,3.08,14.29,8.33,14.29,15.73,0,4.52-1.51,8.14-4.52,10.85-3.02,2.71-7.06,4.06-12.13,4.06s-9.29-1.35-12.24-4.06c-2.95-2.71-4.83-6.32-5.66-10.85h8.23c1.16,5.28,4.49,7.92,9.97,7.92,2.6,0,4.63-.68,6.07-2.06,1.44-1.37,2.16-3.12,2.16-5.24,0-2.26-.76-4.13-2.26-5.6-1.51-1.47-4.42-2.93-8.74-4.37-4.66-1.51-8.09-3.46-10.28-5.86-2.19-2.4-3.29-5.45-3.29-9.15s1.35-6.94,4.06-9.51c2.71-2.57,6.49-3.86,11.36-3.86,8.98,0,14.5,4.49,16.56,13.47m26.63,37.43v-27.35c0-5.07,1.2-9.05,3.6-11.93,2.4-2.88,5.69-4.32,9.87-4.32,3.56,0,6.41,1.34,8.53,4.01,2.12,2.67,3.19,6.1,3.19,10.28v29.3h8.23v-27.35c0-5.35,1.28-9.39,3.86-12.13,2.57-2.74,5.74-4.11,9.51-4.11s6.85,1.35,8.84,4.06c1.99,2.71,2.98,6.12,2.98,10.23v29.3h8.12v-28.69c0-7.06-1.71-12.53-5.14-16.4-3.43-3.87-7.99-5.81-13.68-5.81-3.98,0-7.45.99-10.44,2.98-2.98,1.99-5.16,4.39-6.53,7.2-1.03-2.95-3.02-5.38-5.96-7.3-2.95-1.92-6.31-2.88-10.08-2.88-5.9,0-10.8,2.61-14.7,7.81h-.21v-6.17h-8.12v49.25h8.12Zm126.57-49.25v7.1h-.1c-4.94-5.83-10.8-8.74-17.58-8.74-7.4,0-13.56,2.47-18.46,7.4-4.9,4.94-7.35,11.21-7.35,18.82s2.48,14.17,7.45,19.07c4.97,4.9,10.92,7.35,17.84,7.35,7.4,0,13.4-2.78,17.99-8.33h.21v6.58h8.12v-49.25h-8.12Zm-30.33,11.16c3.15-3.8,7.64-5.71,13.47-5.71,4.94,0,9.1,1.8,12.49,5.4,3.39,3.6,5.09,8.28,5.09,14.04,0,5.42-1.77,9.92-5.3,13.52-3.53,3.6-7.7,5.4-12.49,5.4-5.69,0-10.11-1.92-13.26-5.76-3.15-3.84-4.73-8.33-4.73-13.47s1.58-9.61,4.73-13.42m84.31-12.49c-1.17-.21-2.54-.31-4.11-.31-2.95,0-5.62.82-8.02,2.47-2.4,1.65-4.08,3.43-5.04,5.35h-.21v-6.17h-8.12v49.25h8.12v-26.12c0-5.89,1.16-10.28,3.5-13.16,2.33-2.88,5.38-4.32,9.15-4.32,1.1,0,2.67.17,4.73.51v-7.51m18.51,8.12v25.71c0,5.42.99,9.67,2.98,12.75,1.99,3.08,5.72,4.63,11.21,4.63,3.02,0,5.55-.34,7.61-1.03v-6.68c-1.99.55-3.98.82-5.96.82-2.74,0-4.71-.74-5.91-2.21-1.2-1.47-1.8-4.13-1.8-7.97v-26.01h13.16v-6.79h-13.16v-15.73h-8.12v15.73h-6.48v6.79h6.48Zm77.94,66.63v-30.74h.21c4.66,5.55,10.73,8.33,18.2,8.33s13.18-2.53,17.94-7.61c4.76-5.07,7.15-11.34,7.15-18.82,0-7.06-2.25-13.2-6.74-18.41-4.49-5.21-10.51-7.81-18.05-7.81s-13.64,2.88-18.51,8.64h-.21v-6.99h-8.12v73.42h8.12Zm35.06-48.84c0,5.14-1.58,9.63-4.73,13.47-3.15,3.84-7.54,5.76-13.16,5.76-4.87,0-9.07-1.78-12.6-5.35-3.53-3.56-5.3-8.09-5.3-13.57,0-5.76,1.7-10.44,5.09-14.04,3.39-3.6,7.59-5.4,12.6-5.4,5.69,0,10.13,1.89,13.32,5.66,3.19,3.77,4.78,8.26,4.78,13.47m46.48-26.22c-7.27,0-13.16,2.5-17.69,7.51-4.52,5-6.79,11.04-6.79,18.1,0,7.75,2.42,14.19,7.25,19.33,4.83,5.14,11.12,7.71,18.87,7.71,5.28,0,9.75-1.28,13.42-3.86,3.67-2.57,6.46-5.67,8.38-9.31h-9.36c-3.36,3.98-7.58,5.96-12.65,5.96-4.66,0-8.74-1.7-12.24-5.09-3.5-3.39-5.24-7.32-5.24-11.77h40.2c.14-.68.21-1.68.21-2.98,0-2.88-.45-5.74-1.34-8.59-.89-2.84-2.25-5.57-4.06-8.17-1.82-2.6-4.37-4.73-7.66-6.38-3.29-1.65-7.06-2.47-11.31-2.47m0,7.09c4.32,0,7.93,1.44,10.85,4.32,2.91,2.88,4.58,6.34,4.99,10.39h-31.77c.41-3.97,2.06-7.42,4.93-10.33,2.88-2.91,6.55-4.37,11-4.37m37.94,19.13c0,7.47,2.52,13.74,7.56,18.82,5.04,5.07,11.29,7.61,18.77,7.61s13.81-2.57,18.82-7.71c5-5.14,7.51-11.38,7.51-18.71s-2.49-13.71-7.45-18.71c-4.97-5-11.26-7.51-18.87-7.51s-13.73,2.49-18.77,7.45c-5.04,4.97-7.56,11.23-7.56,18.77m8.43,0c0-5.48,1.68-10.01,5.04-13.57,3.36-3.56,7.64-5.35,12.85-5.35s9.58,1.82,12.9,5.45c3.32,3.63,4.99,8.12,4.99,13.47s-1.7,9.94-5.09,13.57c-3.39,3.63-7.66,5.45-12.8,5.45-4.87,0-9.07-1.82-12.6-5.45-3.53-3.63-5.3-8.16-5.3-13.57m69.3,48.84v-30.74h.21c4.66,5.55,10.73,8.33,18.2,8.33s13.18-2.53,17.94-7.61c4.76-5.07,7.15-11.34,7.15-18.82,0-7.06-2.25-13.2-6.74-18.41-4.49-5.21-10.51-7.81-18.05-7.81s-13.64,2.88-18.51,8.64h-.21v-6.99h-8.12v73.42h8.12Zm35.06-48.84c0,5.14-1.58,9.63-4.73,13.47-3.15,3.84-7.54,5.76-13.16,5.76-4.87,0-9.07-1.78-12.6-5.35-3.53-3.56-5.3-8.09-5.3-13.57,0-5.76,1.7-10.44,5.09-14.04,3.39-3.6,7.59-5.4,12.6-5.4,5.69,0,10.13,1.89,13.32,5.66,3.19,3.77,4.78,8.26,4.78,13.47m25.4,24.68h8.12v-74.03h-8.12v74.03Zm49.56-50.9c-7.27,0-13.16,2.5-17.69,7.51-4.52,5-6.79,11.04-6.79,18.1,0,7.75,2.42,14.19,7.25,19.33,4.83,5.14,11.12,7.71,18.87,7.71,5.28,0,9.75-1.28,13.42-3.86,3.67-2.57,6.46-5.67,8.38-9.31h-9.36c-3.36,3.98-7.58,5.96-12.65,5.96-4.66,0-8.74-1.7-12.24-5.09-3.5-3.39-5.24-7.32-5.24-11.77h40.2c.14-.68.21-1.68.21-2.98,0-2.88-.45-5.74-1.34-8.59-.89-2.84-2.25-5.57-4.06-8.17-1.82-2.6-4.37-4.73-7.66-6.38-3.29-1.65-7.06-2.47-11.31-2.47m0,7.09c4.32,0,7.93,1.44,10.85,4.32,2.91,2.88,4.58,6.34,4.99,10.39h-31.77c.41-3.97,2.06-7.42,4.93-10.33,2.88-2.91,6.55-4.37,11-4.37m-610.87,115.14c-2.06-8.98-7.58-13.47-16.56-13.47-4.87,0-8.65,1.29-11.36,3.86-2.71,2.57-4.06,5.74-4.06,9.51s1.1,6.75,3.29,9.15c2.19,2.4,5.62,4.35,10.28,5.86,4.32,1.44,7.23,2.9,8.74,4.37,1.51,1.47,2.26,3.34,2.26,5.6,0,2.13-.72,3.87-2.16,5.24-1.44,1.37-3.46,2.06-6.07,2.06-5.48,0-8.81-2.64-9.97-7.92h-8.23c.82,4.52,2.71,8.14,5.66,10.85,2.95,2.71,7.03,4.06,12.24,4.06s9.12-1.35,12.13-4.06c3.02-2.71,4.52-6.32,4.52-10.85,0-7.4-4.77-12.65-14.29-15.73-4.11-1.3-6.87-2.62-8.28-3.96-1.41-1.34-2.11-2.86-2.11-4.58,0-1.85.7-3.41,2.11-4.68,1.4-1.27,3.31-1.9,5.71-1.9,1.92,0,3.61.62,5.09,1.85,1.47,1.23,2.42,2.81,2.83,4.73h8.23m26.63,37.43v-27.35c0-5.07,1.2-9.05,3.6-11.93,2.4-2.88,5.69-4.32,9.87-4.32,3.56,0,6.41,1.34,8.53,4.01,2.12,2.67,3.19,6.1,3.19,10.28v29.3h8.23v-27.35c0-5.35,1.28-9.39,3.86-12.13,2.57-2.74,5.74-4.11,9.51-4.11s6.85,1.35,8.84,4.06c1.99,2.71,2.98,6.12,2.98,10.23v29.3h8.12v-28.69c0-7.06-1.71-12.53-5.14-16.4-3.43-3.87-7.99-5.81-13.68-5.81-3.98,0-7.45.99-10.44,2.98-2.98,1.99-5.16,4.39-6.53,7.2-1.03-2.95-3.02-5.38-5.96-7.3-2.95-1.92-6.31-2.88-10.08-2.88-5.9,0-10.8,2.61-14.7,7.81h-.21v-6.17h-8.12v49.25h8.12Zm126.57-49.25v7.1h-.1c-4.94-5.83-10.8-8.74-17.58-8.74-7.4,0-13.56,2.47-18.46,7.4-4.9,4.94-7.35,11.21-7.35,18.82s2.48,14.17,7.45,19.07c4.97,4.9,10.92,7.35,17.84,7.35,7.4,0,13.4-2.78,17.99-8.33h.21v6.58h8.12v-49.25h-8.12Zm-30.33,11.16c3.15-3.8,7.64-5.71,13.47-5.71,4.94,0,9.1,1.8,12.49,5.4,3.39,3.6,5.09,8.28,5.09,14.04,0,5.42-1.77,9.92-5.3,13.52-3.53,3.6-7.7,5.4-12.49,5.4-5.69,0-10.11-1.92-13.26-5.76-3.15-3.84-4.73-8.33-4.73-13.47s1.58-9.61,4.73-13.42m84.31-12.49c-1.17-.21-2.54-.31-4.11-.31-2.95,0-5.62.82-8.02,2.47-2.4,1.65-4.08,3.43-5.04,5.35h-.21v-6.17h-8.12v49.25h8.12v-26.12c0-5.89,1.16-10.28,3.5-13.16,2.33-2.88,5.38-4.32,9.15-4.32,1.1,0,2.67.17,4.73.51v-7.51m18.51,8.12v25.71c0,5.42.99,9.67,2.98,12.75,1.99,3.08,5.72,4.63,11.21,4.63,3.02,0,5.55-.34,7.61-1.03v-6.68c-1.99.55-3.98.82-5.96.82-2.74,0-4.71-.74-5.91-2.21-1.2-1.47-1.8-4.13-1.8-7.97v-26.01h13.16v-6.79h-13.16v-15.73h-8.12v15.73h-6.48v6.79h6.48Zm101.18,5.04c-2.06-8.98-7.58-13.47-16.56-13.47-4.87,0-8.65,1.29-11.36,3.86-2.71,2.57-4.06,5.74-4.06,9.51s1.1,6.75,3.29,9.15c2.19,2.4,5.62,4.35,10.28,5.86,4.32,1.44,7.23,2.9,8.74,4.37,1.51,1.47,2.26,3.34,2.26,5.6,0,2.13-.72,3.87-2.16,5.24-1.44,1.37-3.46,2.06-6.07,2.06-5.48,0-8.81-2.64-9.97-7.92h-8.23c.82,4.52,2.71,8.14,5.66,10.85,2.95,2.71,7.03,4.06,12.24,4.06s9.12-1.35,12.13-4.06c3.02-2.71,4.52-6.32,4.52-10.85,0-7.4-4.77-12.65-14.29-15.73-4.11-1.3-6.87-2.62-8.28-3.96-1.41-1.34-2.11-2.86-2.11-4.58,0-1.85.7-3.41,2.11-4.68,1.4-1.27,3.31-1.9,5.71-1.9,1.92,0,3.61.62,5.09,1.85,1.47,1.23,2.42,2.81,2.83,4.73h8.23m15.11,12.75c0,7.47,2.52,13.74,7.56,18.82,5.04,5.07,11.29,7.61,18.77,7.61s13.81-2.57,18.82-7.71c5-5.14,7.51-11.38,7.51-18.71s-2.49-13.71-7.45-18.71c-4.97-5-11.26-7.51-18.87-7.51s-13.73,2.49-18.77,7.45c-5.04,4.97-7.56,11.23-7.56,18.77m8.43,0c0-5.48,1.68-10.01,5.04-13.57,3.36-3.56,7.64-5.35,12.85-5.35s9.58,1.82,12.9,5.45c3.32,3.63,4.99,8.12,4.99,13.47s-1.7,9.94-5.09,13.57c-3.39,3.63-7.66,5.45-12.8,5.45-4.87,0-9.07-1.82-12.6-5.45-3.53-3.63-5.3-8.16-5.3-13.57m61.18,24.68h8.12v-74.03h-8.12v74.03Zm61.69-49.25v26.32c0,5.62-1.22,9.91-3.65,12.85-2.43,2.95-5.81,4.42-10.13,4.42-3.63,0-6.53-1.34-8.69-4.01-2.16-2.67-3.24-6.48-3.24-11.41v-28.17h-8.12v28.79c0,7.61,1.87,13.21,5.6,16.81,3.74,3.6,8.11,5.4,13.11,5.4,6.1,0,11.07-2.6,14.91-7.81h.21v6.07h8.12v-49.25h-8.12Zm29.61,6.79v25.71c0,5.42.99,9.67,2.98,12.75,1.99,3.08,5.72,4.63,11.21,4.63,3.02,0,5.55-.34,7.61-1.03v-6.68c-1.99.55-3.98.82-5.96.82-2.74,0-4.71-.74-5.91-2.21-1.2-1.47-1.8-4.13-1.8-7.97v-26.01h13.16v-6.79h-13.16v-15.73h-8.12v15.73h-6.48v6.79h6.48Zm37.94,42.47h8.12v-49.25h-8.12v49.25Zm25.09-24.68c0,7.47,2.52,13.74,7.56,18.82,5.04,5.07,11.29,7.61,18.77,7.61s13.81-2.57,18.82-7.71c5-5.14,7.51-11.38,7.51-18.71s-2.49-13.71-7.45-18.71c-4.97-5-11.26-7.51-18.87-7.51s-13.73,2.49-18.77,7.45c-5.04,4.97-7.56,11.23-7.56,18.77m8.43,0c0-5.48,1.68-10.01,5.04-13.57,3.36-3.56,7.64-5.35,12.85-5.35s9.58,1.82,12.9,5.45c3.32,3.63,4.99,8.12,4.99,13.47s-1.7,9.94-5.09,13.57c-3.39,3.63-7.66,5.45-12.8,5.45-4.87,0-9.07-1.82-12.6-5.45-3.53-3.63-5.3-8.16-5.3-13.57m69.3,24.68v-26.22c0-5.62,1.29-9.92,3.86-12.9,2.57-2.98,6.12-4.47,10.64-4.47,3.91,0,6.97,1.34,9.2,4.01,2.23,2.67,3.34,6.48,3.34,11.41v28.17h8.12v-28.69c0-7.61-1.94-13.21-5.81-16.81-3.87-3.6-8.42-5.4-13.62-5.4-6.31,0-11.48,2.61-15.53,7.81h-.21v-6.17h-8.12v49.25h8.12Zm86.27-37.43c-2.06-8.98-7.58-13.47-16.56-13.47-4.87,0-8.65,1.29-11.36,3.86-2.71,2.57-4.06,5.74-4.06,9.51s1.1,6.75,3.29,9.15c2.19,2.4,5.62,4.35,10.28,5.86,4.32,1.44,7.23,2.9,8.74,4.37,1.51,1.47,2.26,3.34,2.26,5.6,0,2.13-.72,3.87-2.16,5.24-1.44,1.37-3.46,2.06-6.07,2.06-5.48,0-8.81-2.64-9.97-7.92h-8.23c.82,4.52,2.71,8.14,5.66,10.85,2.95,2.71,7.03,4.06,12.24,4.06s9.12-1.35,12.13-4.06c3.02-2.71,4.52-6.32,4.52-10.85,0-7.4-4.77-12.65-14.29-15.73-4.11-1.3-6.87-2.62-8.28-3.96-1.41-1.34-2.11-2.86-2.11-4.58,0-1.85.7-3.41,2.11-4.68,1.4-1.27,3.31-1.9,5.71-1.9,1.92,0,3.61.62,5.09,1.85,1.47,1.23,2.42,2.81,2.83,4.73h8.23m-179.98-28.43c0-2.79-2.26-5.05-5.05-5.05s-5.05,2.26-5.05,5.05,2.26,5.05,5.05,5.05,5.05-2.26,5.05-5.05"/>
      </g>
    </g>
  </g>
</svg>